<svg xmlns="http://www.w3.org/2000/svg" version="1.1" xmlns:xlink="http://www.w3.org/1999/xlink" xmlns:svgjs="http://svgjs.dev/svgjs" width="1500" height="359" viewBox="0 0 1500 359"><g transform="matrix(1,0,0,1,-0.9090909090909918,0.697894219024846)"><svg viewBox="0 0 396 95" data-background-color="#ffffff" preserveAspectRatio="xMidYMid meet" height="359" width="1500" xmlns="http://www.w3.org/2000/svg" xmlns:xlink="http://www.w3.org/1999/xlink"><g id="tight-bounds" transform="matrix(1,0,0,1,0.2400000000000091,-0.18467952871131388)"><svg viewBox="0 0 395.52 95.36935905742264" height="95.36935905742264" width="395.52"><g><svg viewBox="0 0 598.5805988341583 144.3321401067504" height="95.36935905742264" width="395.52"><g><rect width="9.418249888274486" height="125.32457896389323" x="420.1751044195667" y="9.503780571428578" fill="#551e19" opacity="1" stroke-width="0" stroke="transparent" fill-opacity="1" class="rect-qz-0" data-fill-palette-color="primary" rx="1%" id="qz-0" data-palette-color="#551e19"></rect></g><g transform="matrix(1,0,0,1,0,19.947495485086343)"><svg viewBox="0 0 395.52 104.4371491365777" height="104.4371491365777" width="395.52"><g id="textblocktransform"><svg viewBox="0 0 395.52 104.4371491365777" height="104.4371491365777" width="395.52" id="textblock"><g><svg viewBox="0 0 395.52 104.4371491365777" height="104.4371491365777" width="395.52"><g transform="matrix(1,0,0,1,0,0)"><svg width="395.52" viewBox="2.5 -31 159.23 42.05" height="104.4371491365777" data-palette-color="#551e19"><path d="M15.8-27.7Q11.7-27.7 9.5-24.48 7.3-21.25 7.3-15.28 7.3-9.3 9.63-5.93 11.95-2.55 15.93-2.55 19.9-2.55 24.4-5.15L24.4-5.15 25.25-7.15 26.15-6.95 24.4 1 23.4 1 23.45-0.25Q20.1 0.75 15.95 0.75L15.95 0.75Q9.6 0.75 6.05-3.3 2.5-7.35 2.5-14.78 2.5-22.2 6.35-26.6 10.2-31 16.8-31L16.8-31Q20.1-31 23.8-29.75L23.8-29.75 24.15-31 25.1-31 24.75-23.3 23.8-23.3 23.45-25.4Q19.05-27.7 15.8-27.7L15.8-27.7ZM40.25-2.05L40.25-2.05Q45.55-2.05 45.55-9.4L45.55-9.4Q45.55-17.9 39.4-17.9L39.4-17.9Q36.65-17.9 35.42-16.18 34.2-14.45 34.2-10.3L34.2-10.3Q34.2-2.05 40.25-2.05ZM39.75 0.75Q35.1 0.75 32.5-1.98 29.9-4.7 29.9-9.68 29.9-14.65 32.65-17.68 35.4-20.7 40.07-20.7 44.75-20.7 47.32-18.03 49.9-15.35 49.9-10.33 49.9-5.3 47.15-2.27 44.4 0.75 39.75 0.75ZM56.05-6.45L56.05-11.05 55.6-18.6 53.9-18.95 53.95-19.9 60.4-20.45 59.9-11.05 59.9-6.65Q59.9-4.75 60.97-3.73 62.05-2.7 64.4-2.7 66.75-2.7 69.09-4.5L69.09-4.5 69.34-8.9 69.34-11.05 68.9-18.6 67.2-18.95 67.25-19.9 73.7-20.45 73.2-11.05 73.2-8.9 73.65-1.35 75.34-1 75.3-0.05 68.84 0.5 68.95-1.8Q65.65 0.75 62.47 0.75 59.3 0.75 57.67-1.15 56.05-3.05 56.05-6.45L56.05-6.45ZM79.59-18.95L79.64-19.9 86.09-20.45 85.89-17.15Q87.19-19.25 88.24-19.98 89.29-20.7 90.79-20.7 92.29-20.7 93.74-20.45L93.74-20.45 93.49-14.65 92.64-14.65 92.29-16.8Q90.84-17.3 89.87-17.3 88.89-17.3 88.04-16.8 87.19-16.3 85.79-14.75L85.79-14.75 85.59-11.05 85.59-8.85 85.99-1.3 88.99-0.95 88.94 0 79.84 0 79.79-0.95 81.29-1.3 81.74-8.85 81.74-11.05 81.29-18.6 79.59-18.95ZM97.04 0.05L97.04 0.05 96.24 1.05 95.49 0.8 97.54-5.35 98.34-5.2 98.14-3.15Q100.69-2.05 102.79-2.05 104.89-2.05 105.99-2.8 107.09-3.55 107.09-4.8 107.09-6.05 105.94-6.88 104.79-7.7 103.14-8.33 101.49-8.95 99.87-9.7 98.24-10.45 97.09-11.8 95.94-13.15 95.94-15.33 95.94-17.5 98.34-19.1 100.74-20.7 104.44-20.7L104.44-20.7Q106.59-20.7 108.79-20.15L108.79-20.15 109.24-21.3 110.04-21.3 109.74-14.6 108.89-14.65 108.64-16.5Q105.19-18 103.09-18L103.09-18Q99.64-18 99.64-15.7L99.64-15.7Q99.64-14.7 100.82-13.95 101.99-13.2 103.64-12.6 105.29-12 106.94-11.25 108.59-10.5 109.77-9.1 110.94-7.7 110.94-5.75L110.94-5.75Q110.94-2.8 108.49-1.03 106.04 0.75 101.99 0.75L101.99 0.75Q99.74 0.75 97.04 0.05ZM123.04 0L115.44 0 115.39-0.95 116.89-1.3 117.34-8.85 117.34-11.05 116.89-18.6 115.19-18.95 115.24-19.9 121.69-20.45 121.19-11.05 121.19-8.85 121.59-1.3 123.09-0.95 123.04 0ZM122.64-27.65L122.64-27.65Q121.89-25.35 119.29-24.3L119.29-24.3Q116.89-25.1 115.94-27.65L115.94-27.65Q116.94-30.2 119.29-31L119.29-31Q120.69-30.4 121.46-29.65 122.24-28.9 122.64-27.65ZM130.04-17.5L126.59-17.35 126.59-19.05 130.04-19.95Q130.04-31 137.59-31L137.59-31Q140.04-31 142.09-30.2L142.09-30.2 141.44-24.65 140.59-24.7 140.39-26.75Q138.19-28.2 136.89-28.2L136.89-28.2Q133.89-28.2 133.89-21.5L133.89-21.5 133.89-19.95 139.44-19.95 139.19-17.8 133.89-17.55 133.89-8.85 134.29-1.3 137.29-0.95 137.24 0 128.14 0 128.09-0.95 129.59-1.3 130.04-8.85 130.04-17.5ZM161.73-19L160.23-18.65 149.33 6.95 148.23 11.05 141.83 11.05 141.78 10.15 143.93 9.8 149.33-0.05 141.83-18.65 140.33-19 140.38-19.95 149.23-19.95 149.28-18.9 147.08-18.65 148.13-14.15 151.23-4.5 155.03-14.15 155.93-18.65 153.73-18.9 153.78-19.95 161.68-19.95 161.73-19Z" opacity="1" transform="matrix(1,0,0,1,0,0)" fill="#551e19" class="wordmark-text-0" data-fill-palette-color="primary" id="text-0"></path></svg></g></svg></g></svg></g></svg></g><g transform="matrix(1,0,0,1,454.2484587274079,0)"><svg viewBox="0 0 144.3321401067504 144.3321401067504" height="144.3321401067504" width="144.3321401067504"><g><svg xmlns="http://www.w3.org/2000/svg" xmlns:xlink="http://www.w3.org/1999/xlink" version="1.1" x="0" y="0" viewBox="0 0 60 60" style="enable-background:new 0 0 60 60;" xml:space="preserve" height="144.3321401067504" width="144.3321401067504" class="icon-icon-0" data-fill-palette-color="accent" id="icon-0"><g fill="#c56e33" data-fill-palette-color="accent"><path d="M36 42c-4.411 0-8-3.589-8-8s3.589-8 8-8c0.552 0 1 0.448 1 1s-0.448 1-1 1c-3.308 0-6 2.691-6 6s2.692 6 6 6c0.552 0 1 0.448 1 1S36.552 42 36 42z" fill="#c56e33" data-fill-palette-color="accent"></path><path d="M24.101 31.95c-0.256 0-0.512-0.098-0.707-0.293-1.511-1.511-2.343-3.52-2.343-5.657s0.832-4.146 2.343-5.657c2.056-2.057 5.072-2.836 7.869-2.033 0.531 0.152 0.838 0.707 0.685 1.237-0.152 0.531-0.705 0.838-1.237 0.686-2.099-0.606-4.361-0.02-5.903 1.524-1.133 1.133-1.757 2.64-1.757 4.243s0.624 3.109 1.757 4.243c0.391 0.391 0.391 1.023 0 1.414C24.613 31.852 24.356 31.95 24.101 31.95z" fill="#c56e33" data-fill-palette-color="accent"></path><path d="M48 45c-2.137 0-4.146-0.832-5.657-2.343C40.832 41.146 40 39.137 40 37s0.832-4.146 2.343-5.657c0.391-0.391 1.024-0.391 1.414 0 0.391 0.391 0.391 1.023 0 1.414C42.624 33.891 42 35.397 42 37s0.624 3.109 1.757 4.243C44.891 42.376 46.397 43 48 43s3.109-0.624 4.243-1.757c0.39-0.391 1.023-0.391 1.414 0s0.391 1.023 0 1.414C52.146 44.168 50.137 45 48 45z" fill="#c56e33" data-fill-palette-color="accent"></path><path d="M51.751 32.856c-0.087 0-0.176-0.012-0.265-0.036-0.533-0.146-0.846-0.696-0.7-1.229 0.569-2.078-0.022-4.313-1.544-5.834C48.109 24.624 46.603 24 45 24s-3.109 0.624-4.243 1.757c-0.39 0.391-1.023 0.391-1.414 0s-0.391-1.023 0-1.414C40.854 22.832 42.863 22 45 22s4.146 0.832 5.657 2.343c2.028 2.028 2.817 5.008 2.058 7.777C52.594 32.564 52.191 32.856 51.751 32.856z" fill="#c56e33" data-fill-palette-color="accent"></path><path d="M45.387 20.04c-0.256 0-0.512-0.098-0.707-0.293-1.133-1.133-2.64-1.757-4.243-1.757s-3.109 0.624-4.243 1.757c-0.39 0.391-1.023 0.391-1.414 0s-0.391-1.023 0-1.414c1.511-1.511 3.52-2.343 5.657-2.343s4.146 0.832 5.657 2.343c0.391 0.391 0.391 1.023 0 1.414C45.898 19.942 45.643 20.04 45.387 20.04z" fill="#c56e33" data-fill-palette-color="accent"></path><path d="M18.899 40c-0.256 0-0.512-0.098-0.707-0.293-0.391-0.391-0.391-1.023 0-1.414 1.133-1.133 1.757-2.64 1.757-4.243 0-1.603-0.624-3.109-1.757-4.243-1.133-1.133-2.64-1.757-4.243-1.757s-3.109 0.624-4.243 1.757c-0.39 0.391-1.023 0.391-1.414 0s-0.391-1.023 0-1.414c1.511-1.511 3.52-2.343 5.657-2.343s4.146 0.832 5.657 2.343c1.511 1.511 2.343 3.52 2.343 5.657 0 2.137-0.832 4.146-2.343 5.657C19.411 39.902 19.155 40 18.899 40z" fill="#c56e33" data-fill-palette-color="accent"></path><path d="M40.5 56c-4.726 0-8.945-2.889-10.678-7.249-2.1-0.464-3.964-1.578-5.368-3.201C22.795 46.501 20.927 47 19 47c-4.62 0-8.673-2.824-10.286-7.093C3.776 39.271 0 35.044 0 30c0-3.613 1.909-6.88 5.022-8.664C5.368 15.583 10.171 11 16 11c2.467 0 4.801 0.805 6.716 2.293C24.212 9.566 27.888 7 32 7c3.259 0 6.245 1.551 8.124 4.185 5.113-0.994 10.022 2.189 11.45 6.946C56.353 18.893 60 23.097 60 28c0 2.684-1.063 5.215-2.947 7.086C58.314 36.799 59 38.864 59 41c0 5.157-3.905 9.425-8.983 9.938C47.869 54.117 44.349 56 40.5 56zM24.68 43.225c0.312 0 0.619 0.146 0.814 0.418 1.253 1.751 3.109 2.904 5.229 3.245 0.366 0.059 0.669 0.315 0.788 0.666C32.821 51.409 36.433 54 40.5 54c3.321 0 6.347-1.699 8.093-4.545 0.173-0.282 0.473-0.459 0.803-0.476C53.66 48.77 57 45.265 57 41c0-1.974-0.734-3.874-2.065-5.35-0.184-0.204-0.276-0.473-0.255-0.747 0.021-0.273 0.153-0.526 0.366-0.699C56.923 32.676 58 30.415 58 28c0-4.114-3.209-7.612-7.306-7.964-0.435-0.037-0.796-0.353-0.89-0.779-0.953-4.286-5.353-7.186-9.871-5.977-0.427 0.114-0.88-0.065-1.111-0.444C37.35 10.434 34.801 9 32 9c-3.735 0-7.021 2.647-7.813 6.294-0.079 0.361-0.35 0.649-0.705 0.75-0.355 0.1-0.738-0.004-0.993-0.27C20.771 13.985 18.467 13 16 13c-4.934 0-8.971 4.015-8.997 8.951-0.002 0.377-0.217 0.722-0.555 0.89C3.704 24.205 2 26.948 2 30c0 4.216 3.299 7.718 7.51 7.974 0.415 0.025 0.771 0.304 0.894 0.701C11.58 42.458 15.035 45 19 45c1.834 0 3.602-0.552 5.112-1.598C24.286 43.282 24.484 43.225 24.68 43.225z" fill="#c56e33" data-fill-palette-color="accent"></path><path d="M48.019 51.067c-5.865 0-8.73-4.326-8.859-4.525-0.3-0.464-0.166-1.083 0.298-1.382 0.464-0.299 1.081-0.167 1.381 0.295 0.122 0.185 2.857 4.228 8.484 3.53 0.547-0.072 1.047 0.321 1.115 0.869 0.068 0.548-0.321 1.047-0.869 1.115C49.031 51.037 48.514 51.067 48.019 51.067z" fill="#c56e33" data-fill-palette-color="accent"></path><path d="M22.688 19.625c-0.013 0-0.026 0-0.039-0.001-0.552-0.021-0.982-0.485-0.961-1.038 0.065-1.704 0.529-3.656 0.549-3.738 0.129-0.537 0.669-0.869 1.205-0.739 0.537 0.128 0.868 0.668 0.74 1.205-0.004 0.018-0.438 1.845-0.495 3.349C23.666 19.202 23.223 19.625 22.688 19.625z" fill="#c56e33" data-fill-palette-color="accent"></path><path d="M6.006 22.944c-0.337 0-0.667-0.17-0.855-0.479-0.287-0.47-0.141-1.083 0.328-1.371 0.105-0.065 2.597-1.572 5.679-1.082 0.545 0.087 0.917 0.6 0.83 1.145s-0.6 0.916-1.145 0.831c-2.33-0.372-4.3 0.799-4.319 0.811C6.361 22.897 6.182 22.944 6.006 22.944z" fill="#c56e33" data-fill-palette-color="accent"></path><path d="M50.903 22.43c-0.548 0-0.995-0.442-1-0.991-0.009-1.083-0.118-2.296-0.119-2.309-0.05-0.55 0.355-1.036 0.906-1.086 0.552-0.042 1.036 0.355 1.086 0.906 0.005 0.053 0.118 1.309 0.128 2.472 0.005 0.552-0.439 1.004-0.991 1.009C50.908 22.43 50.906 22.43 50.903 22.43z" fill="#c56e33" data-fill-palette-color="accent"></path><path d="M24.682 45.225c-0.267 0-0.534-0.106-0.73-0.317-0.377-0.403-0.356-1.036 0.047-1.414 0.828-0.775 2.21-2.375 2.394-3.364 0.101-0.543 0.623-0.903 1.166-0.801 0.543 0.101 0.902 0.623 0.801 1.166-0.362 1.955-2.726 4.21-2.995 4.461C25.171 45.135 24.926 45.225 24.682 45.225z" fill="#c56e33" data-fill-palette-color="accent"></path><path d="M34.001 49.033c-0.015 0-0.031 0-0.047-0.001l-3.436-0.158c-0.552-0.025-0.978-0.493-0.953-1.045 0.025-0.551 0.49-0.961 1.045-0.953l3.436 0.158c0.552 0.025 0.978 0.493 0.953 1.045C34.974 48.615 34.532 49.033 34.001 49.033z" fill="#c56e33" data-fill-palette-color="accent"></path><path d="M9.445 39.968c-0.449 0-0.856-0.303-0.967-0.758-0.029-0.119-0.277-1.212-0.019-3.038 0.077-0.547 0.583-0.928 1.13-0.851 0.547 0.077 0.927 0.583 0.85 1.13-0.203 1.441-0.019 2.282-0.017 2.291 0.121 0.535-0.21 1.072-0.745 1.198C9.6 39.959 9.522 39.968 9.445 39.968z" fill="#c56e33" data-fill-palette-color="accent"></path><path d="M51.47 38.03c-0.413 0-0.8-0.258-0.944-0.67-0.182-0.521 0.092-1.092 0.613-1.274 2.864-1.003 3.867-1.847 3.877-1.855 0.415-0.357 1.045-0.317 1.407 0.094 0.362 0.411 0.33 1.032-0.076 1.399-0.122 0.11-1.286 1.108-4.547 2.25C51.691 38.011 51.579 38.03 51.47 38.03z" fill="#c56e33" data-fill-palette-color="accent"></path><path d="M6 58.414L1.586 54 6 49.586 10.414 54 6 58.414zM4.414 54L6 55.586 7.586 54 6 52.414 4.414 54z" fill="#c56e33" data-fill-palette-color="accent"></path><path d="M6 52c-0.552 0-1-0.448-1-1v-2c0-0.552 0.448-1 1-1s1 0.448 1 1v2C7 51.552 6.552 52 6 52z" fill="#c56e33" data-fill-palette-color="accent"></path><path d="M11 55H9c-0.552 0-1-0.448-1-1s0.448-1 1-1h2c0.552 0 1 0.448 1 1S11.552 55 11 55z" fill="#c56e33" data-fill-palette-color="accent"></path><path d="M6 60c-0.552 0-1-0.448-1-1v-2c0-0.552 0.448-1 1-1s1 0.448 1 1v2C7 59.552 6.552 60 6 60z" fill="#c56e33" data-fill-palette-color="accent"></path><path d="M3 55H1c-0.552 0-1-0.448-1-1s0.448-1 1-1h2c0.552 0 1 0.448 1 1S3.552 55 3 55z" fill="#c56e33" data-fill-palette-color="accent"></path><path d="M54 12c-0.552 0-1-0.448-1-1 0-2.206-1.794-4-4-4-0.552 0-1-0.448-1-1s0.448-1 1-1c2.206 0 4-1.794 4-4 0-0.552 0.448-1 1-1s1 0.448 1 1c0 2.206 1.794 4 4 4 0.552 0 1 0.448 1 1s-0.448 1-1 1c-2.206 0-4 1.794-4 4C55 11.552 54.552 12 54 12zM52.313 6C52.981 6.444 53.556 7.019 54 7.687 54.444 7.019 55.019 6.444 55.687 6 55.019 5.556 54.444 4.981 54 4.313 53.556 4.981 52.981 5.556 52.313 6z" fill="#c56e33" data-fill-palette-color="accent"></path></g></svg></g></svg></g></svg></g><defs></defs></svg><rect width="395.52" height="95.36935905742264" fill="none" stroke="none" visibility="hidden"></rect></g></svg></g></svg>